<svg width="145" height="36" viewBox="0 0 145 36" fill="none" xmlns="http://www.w3.org/2000/svg">
<path d="M90.1963 7.31944H93.2661V9.9522H93.3453C94.1574 8.9966 95.1476 8.21653 96.2765 7.67047C97.4252 7.12442 98.673 6.85139 99.9405 6.85139C101.287 6.83189 102.634 7.08541 103.882 7.57296C105.031 8.02151 106.06 8.70407 106.932 9.56216C107.783 10.4397 108.457 11.4538 108.893 12.585C109.843 15.0227 109.843 17.714 108.893 20.1712C108.457 21.2828 107.783 22.3164 106.952 23.194C106.12 24.0521 105.13 24.7152 104.02 25.1832C102.872 25.6708 101.644 25.9048 100.416 25.9048C98.8908 25.9438 97.4054 25.5732 96.0785 24.8322C94.8308 24.1301 93.9197 23.2525 93.3453 22.2189H93.2661V34.2516H90.1963V7.31944ZM93.2661 16.3683C93.2463 17.2654 93.4048 18.1625 93.7216 19.0206C94.296 20.6198 95.5239 21.9069 97.1084 22.5699C98.8314 23.272 100.772 23.272 102.495 22.5699C104.06 21.8874 105.288 20.6003 105.862 19.0206C106.456 17.3044 106.456 15.4322 105.862 13.7161C105.288 12.1169 104.06 10.8298 102.495 10.1667C100.772 9.46465 98.8314 9.46465 97.1084 10.1667C95.5239 10.8298 94.3158 12.1364 93.7216 13.7161C93.4048 14.5547 93.2661 15.4517 93.2661 16.3683Z" fill="black"/>
<path d="M131.131 23.1175H127.031C126.852 23.1175 126.714 22.9783 126.714 22.7993V14.626C126.714 12.0009 126.12 10.0322 124.911 8.75944C123.703 7.46682 121.742 6.85034 119.028 6.85034H107.321C107.796 7.2083 108.252 7.58614 108.668 8.02364C109.123 8.50092 109.559 9.01797 109.916 9.57479H120.018C120.93 9.714 121.781 10.0918 122.475 10.6884C123.267 11.3845 123.663 12.3788 123.663 13.7311V14.2879H122.475C121.346 14.2879 120.117 14.3476 118.77 14.447C117.483 14.5464 116.215 14.8049 115.007 15.2424C113.897 15.6402 112.887 16.2964 112.075 17.1714C111.283 18.0464 110.886 19.2396 110.886 20.7709C110.867 21.5862 111.065 22.4016 111.441 23.1374C111.798 23.8135 112.293 24.3902 112.907 24.8476C113.561 25.3249 114.294 25.6829 115.066 25.9016C115.938 26.1402 116.829 26.2596 117.721 26.2596C119.147 26.2596 120.335 25.9613 121.346 25.3448C122.277 24.8079 123.069 24.0522 123.663 23.1573C123.842 24.9073 125.307 26.2397 127.051 26.2397H132.439L131.131 23.1175ZM122.237 21.9641C121.781 22.4811 121.207 22.8789 120.573 23.1573C119.84 23.4755 119.048 23.6346 118.236 23.6147C117.087 23.6147 116.116 23.376 115.343 22.8789C114.571 22.4016 114.175 21.5664 114.195 20.4129C114.195 19.1601 114.769 18.2453 115.918 17.6885C117.067 17.1317 118.632 16.8533 120.593 16.8533H123.663V18.0266C123.643 18.7624 123.505 19.4783 123.267 20.1743C123.049 20.8504 122.693 21.447 122.237 21.9641Z" fill="black"/>
<path d="M136.046 30.2396C135.727 31.0202 135.408 31.7227 135.089 32.3472C134.77 32.9522 134.371 33.4986 133.892 33.967C133.414 34.4158 132.855 34.7866 132.237 35.0208C131.479 35.2745 130.682 35.4111 129.884 35.3916C129.425 35.3916 128.947 35.3721 128.488 35.3135C128.009 35.255 127.551 35.1379 127.132 34.9232L127.531 32.2887C127.85 32.4253 128.189 32.5033 128.528 32.5424C128.927 32.5814 129.325 32.6009 129.724 32.6009C130.721 32.6009 131.459 32.3277 131.938 31.7813C132.476 31.1373 132.895 30.3957 133.174 29.6151L134.411 26.2194L126.733 7.99219H130.323L136.066 22.1993H136.146L141.65 7.99219H145L136.046 30.2396Z" fill="black"/>
<path d="M6.29671 20.3724C6.60332 20.9646 7.05303 21.4778 7.60493 21.8529C8.17727 22.2477 8.83136 22.5438 9.52635 22.7017C10.2622 22.8794 11.039 22.9781 11.8157 22.9781C12.3881 22.9781 12.9604 22.9386 13.5327 22.8597C14.1255 22.7807 14.6979 22.603 15.2498 22.3662C15.7608 22.1293 16.2309 21.7937 16.5784 21.3594C16.9463 20.8856 17.1303 20.3131 17.1099 19.7209C17.1303 19.0695 16.885 18.4575 16.4149 18.0035C15.8834 17.5297 15.2498 17.1546 14.5752 16.898C13.7372 16.5821 12.8786 16.3255 11.9997 16.1281C11.039 15.911 10.0578 15.6543 9.07666 15.3977C8.07507 15.1608 7.07347 14.845 6.11275 14.4896C5.19292 14.154 4.31396 13.6803 3.51677 13.1078C1.84063 11.8839 0.900354 9.96903 0.961677 7.93574C0.920795 6.71182 1.24784 5.50764 1.86106 4.42191C2.45385 3.43487 3.25104 2.58603 4.19132 1.93458C5.17247 1.2634 6.29671 0.769886 7.46184 0.473776C8.6474 0.157926 9.87385 0 11.1003 0C12.4698 0 13.8394 0.157926 15.1884 0.454036C16.4353 0.730405 17.6209 1.24366 18.6634 1.93458C19.665 2.60577 20.503 3.51384 21.0754 4.56009C21.6682 5.62609 21.9543 6.90923 21.9543 8.42926H16.1696C16.1492 7.75808 15.9652 7.08689 15.6586 6.47493C15.3929 5.98142 14.984 5.56686 14.4935 5.27075C13.9824 4.97465 13.4305 4.7575 12.8378 4.63905C12.1632 4.52061 11.4887 4.44165 10.7937 4.46139C10.3031 4.46139 9.83297 4.52061 9.34239 4.59957C8.87225 4.69828 8.44299 4.87594 8.03418 5.11283C7.6458 5.34972 7.31875 5.66557 7.07346 6.0209C6.80773 6.43545 6.66465 6.92897 6.68509 7.42249C6.66465 7.85678 6.76685 8.29108 6.9917 8.66615C7.19611 8.982 7.58448 9.27811 8.17727 9.55448C8.97446 9.89007 9.81252 10.1664 10.6506 10.3638C11.6931 10.6205 13.083 10.9758 14.7796 11.3904C15.2906 11.4891 15.9856 11.6667 16.885 11.9234C17.8457 12.1997 18.7451 12.6143 19.5628 13.1473C20.4826 13.7395 21.2798 14.5094 21.8726 15.4175C22.5267 16.365 22.8333 17.5692 22.8333 19.03C22.8537 20.1749 22.588 21.3199 22.1179 22.3662C21.6273 23.4124 20.8914 24.3205 19.9716 25.0311C18.9291 25.8208 17.7231 26.413 16.4353 26.7683C14.841 27.2026 13.2057 27.4198 11.55 27.4C10.0783 27.4 8.62696 27.2224 7.19611 26.867C5.84702 26.5512 4.60013 25.9787 3.47589 25.1891C2.39253 24.4389 1.51357 23.4322 0.920793 22.2872C0.287129 21.1225 -0.0194826 19.7209 0.00095816 18.1022H5.76526C5.7857 18.9115 5.94922 19.6814 6.29671 20.3724Z" fill="black"/>
<path d="M24.5624 13.3957C24.6403 12.1355 24.9324 11.0988 25.4776 10.2653C26.0034 9.45224 26.685 8.76111 27.5028 8.25293C28.3597 7.72442 29.2944 7.37885 30.268 7.17558C31.2806 6.97231 32.3322 6.85034 33.3643 6.85034C34.3185 6.85034 35.2727 6.91132 36.2268 7.05362C37.1421 7.17558 38.0378 7.46016 38.8752 7.86671C39.6541 8.25293 40.3162 8.82209 40.8225 9.55388C41.3288 10.2653 41.582 11.2207 41.582 12.3997V22.5634C41.582 23.4171 41.6209 24.2505 41.7378 25.1043C41.8351 25.9174 42.0104 26.5069 42.2441 26.9134H37.0252C36.9279 26.6085 36.85 26.3036 36.7916 25.9784C36.7331 25.6531 36.6942 25.3482 36.6552 25.023C35.8568 25.8971 34.8637 26.5272 33.7538 26.8728C32.6438 27.2183 31.4949 27.4013 30.3459 27.4013C29.5086 27.4013 28.6518 27.2997 27.8534 27.0557C27.1134 26.8524 26.4318 26.4866 25.8281 25.9987C25.2439 25.5108 24.7766 24.901 24.465 24.1896C24.1145 23.3765 23.9587 22.4821 23.9782 21.5877C23.9782 20.4697 24.1729 19.5549 24.5429 18.8435C24.8934 18.1523 25.3803 17.5629 25.9839 17.1157C26.6071 16.6684 27.2886 16.3432 28.0092 16.1603C28.7686 15.957 29.528 15.774 30.307 15.6521C31.0859 15.5301 31.8454 15.4285 32.5854 15.3472C33.2474 15.2862 33.929 15.1642 34.5716 15.0016C35.0779 14.8796 35.5453 14.656 35.9542 14.3308C36.3047 14.0259 36.48 13.538 36.4216 13.0705C36.441 12.603 36.3437 12.1151 36.1489 11.6883C35.9737 11.363 35.7205 11.0784 35.4284 10.8955C35.0974 10.6922 34.7469 10.5702 34.3769 10.5093C33.9485 10.4483 33.5201 10.4076 33.0917 10.4076C32.079 10.4076 31.2806 10.6312 30.6964 11.0784C30.1122 11.5256 29.7812 12.2777 29.6838 13.3551L24.5624 13.3957ZM36.441 17.3596C36.2074 17.5832 35.9347 17.7255 35.6232 17.8271C35.2727 17.9491 34.9221 18.0507 34.5716 18.1117C34.2016 18.193 33.8122 18.254 33.4032 18.2946C32.9943 18.3353 32.5853 18.4166 32.1764 18.4776C31.7869 18.5589 31.417 18.6605 31.0275 18.7825C30.677 18.9045 30.3459 19.0671 30.0538 19.2907C29.7812 19.5143 29.5475 19.7785 29.3917 20.1038C29.2165 20.49 29.1191 20.9169 29.1386 21.3437C29.1191 21.7706 29.2165 22.1772 29.3917 22.5634C29.5475 22.8886 29.7812 23.1529 30.0733 23.3358C30.3849 23.5391 30.7354 23.6814 31.0859 23.7424C31.4754 23.8237 31.8843 23.8643 32.2738 23.8643C33.2864 23.8643 34.0653 23.6814 34.63 23.3358C35.1363 23.0309 35.5647 22.604 35.8568 22.0755C36.11 21.608 36.2853 21.0998 36.3437 20.5713C36.4021 20.1648 36.4216 19.7582 36.441 19.372V17.3596Z" fill="black"/>
<path d="M43.3833 10.7291V7.23175H46.5838V5.76959C46.5838 4.07033 47.1307 2.68721 48.2043 1.62023C49.2779 0.553248 50.9186 0 53.1063 0C53.5722 0 54.0584 0.019758 54.5445 0.0592757C55.0307 0.0987935 55.4966 0.118552 55.9422 0.15807V4.05057C55.294 3.97153 54.6458 3.93202 53.9774 3.93202C53.2481 3.93202 52.7215 4.09009 52.4176 4.42599C52.1138 4.76189 51.9517 5.31514 51.9517 6.10549V7.25151H55.6384V10.7488H51.9517V26.2595H46.5838V10.7488H43.3833V10.7291Z" fill="black"/>
<path d="M61.717 7.3606V10.8735H61.7908C62.0121 10.2847 62.3257 9.73523 62.713 9.24461C63.1003 8.75398 63.543 8.32223 64.041 7.96898C64.539 7.61572 65.0923 7.34097 65.6457 7.14472C66.2175 6.94847 66.8261 6.85034 67.4348 6.85034C67.8037 6.85034 68.1541 6.90922 68.5046 7.02697V11.8547C68.2833 11.8155 68.0066 11.7566 67.6746 11.737C67.361 11.6977 67.0659 11.6781 66.7524 11.6781C65.9777 11.6585 65.203 11.8155 64.4837 12.1687C63.8934 12.4631 63.377 12.9145 62.9897 13.464C62.6023 14.0331 62.3257 14.6808 62.1781 15.3873C62.0121 16.1723 61.9383 16.9573 61.9383 17.7619V26.2596H57.0874V7.38022H61.717V7.3606Z" fill="black"/>
<path d="M70.2501 13.3957C70.328 12.1355 70.6198 11.0988 71.1644 10.2653C71.6896 9.45224 72.3705 8.76111 73.1875 8.25293C74.0434 7.74475 74.9771 7.37885 75.9497 7.17558C76.9613 6.97231 78.0117 6.85034 79.0427 6.85034C79.9959 6.85034 80.949 6.91132 81.9022 7.05362C82.8165 7.17558 83.7113 7.46016 84.5477 7.86671C85.3258 8.25293 85.9872 8.82209 86.493 9.55388C86.9987 10.2653 87.2516 11.2207 87.2516 12.3997V22.5634C87.2516 23.4171 87.2905 24.2505 87.4073 25.1043C87.5045 25.9174 87.6796 26.5069 87.913 26.9134H82.6803C82.583 26.6085 82.5052 26.3036 82.4469 25.9784C82.3885 25.6531 82.3496 25.3482 82.3107 25.023C81.5131 25.8971 80.5211 26.5272 79.4123 26.8728C78.3035 27.2183 77.1558 27.4013 76.0081 27.4013C75.1716 27.4013 74.3157 27.2997 73.5182 27.0557C72.779 26.8524 72.0981 26.4866 71.4951 25.9987C70.9115 25.5108 70.4447 24.901 70.1334 24.1896C69.7833 23.3765 69.6277 22.4821 69.6471 21.5877C69.6471 20.4697 69.8417 19.5549 70.2113 18.8435C70.5614 18.1523 71.0477 17.5629 71.6507 17.1157C72.2732 16.6684 72.954 16.3432 73.6738 16.1603C74.4324 15.957 75.1911 15.774 75.9692 15.6521C76.7473 15.5301 77.5059 15.4285 78.2451 15.3472C78.9065 15.2862 79.5874 15.1642 80.2293 15.0016C80.735 14.8796 81.2019 14.656 81.6104 14.3308C81.9605 14.0259 82.1356 13.538 82.0773 13.0705C82.0967 12.603 81.9995 12.1151 81.8049 11.6883C81.6299 11.363 81.377 11.0784 81.0852 10.8955C80.7545 10.6922 80.4044 10.5702 80.0348 10.5093C79.6068 10.4483 79.1789 10.4076 78.7509 10.4076C77.7394 10.4076 76.9418 10.6312 76.3582 11.0784C75.7747 11.5256 75.444 12.2777 75.3467 13.3551L70.2501 13.3957ZM82.1162 17.3596C81.8827 17.5832 81.6104 17.7255 81.2992 17.8271C80.949 17.9491 80.5989 18.0507 80.2487 18.1117C79.8791 18.193 79.4901 18.254 79.0816 18.2946C78.6731 18.3353 78.2646 18.4166 77.8561 18.4776C77.467 18.5589 77.0974 18.6605 76.7278 18.7825C76.3777 18.9045 76.047 19.0671 75.7552 19.2907C75.4829 19.5143 75.2494 19.7785 75.0938 20.1038C74.9187 20.49 74.8215 20.9169 74.8409 21.3437C74.8215 21.7706 74.9187 22.1772 75.0938 22.5634C75.2494 22.8886 75.4829 23.1529 75.7747 23.3358C76.0859 23.5391 76.436 23.6814 76.7862 23.7424C77.1752 23.8237 77.5837 23.8643 77.9728 23.8643C78.9843 23.8643 79.7624 23.6814 80.3265 23.3358C80.8323 23.0309 81.2603 22.604 81.552 22.0755C81.8049 21.608 81.98 21.0998 82.0384 20.5713C82.0967 20.1648 82.1162 19.7582 82.1356 19.372L82.1162 17.3596Z" fill="black"/>
</svg>
