<svg width="659" height="146" viewBox="0 0 659 146" fill="none" xmlns="http://www.w3.org/2000/svg">
<g clip-path="url(#clip0)">
<path d="M643.7 0L607.8 76.8L594.3 47.7H579.7L601.9 95.3H613.7L658.2 0H643.7Z" fill="black"/>
<path d="M489.7 142.6H518.6V89.7C518.6 77.6 525.6 69.1 536 69.1C546 69.1 551.2 76.1 551.2 86.2V142.6H580.1V80.7C580.1 59.7 567.5 44.9 547.1 44.9C534.1 44.9 525 50.5 518.2 60.7H517.6V47.7H489.6L489.7 142.6ZM432.9 45.1C402.7 45.1 382.5 66.8 382.5 95.4C382.5 123.8 402.7 145.7 432.9 145.7C463.1 145.7 483.3 123.8 483.3 95.4C483.4 66.8 463.1 45.1 432.9 45.1ZM432.7 124.3C419 124.3 411.7 112.8 411.7 95.4C411.7 77.8 418.9 66.5 432.7 66.5C446.4 66.5 454 77.8 454 95.4C454.1 112.8 446.5 124.3 432.7 124.3ZM300.1 142.6H381.3V119.8H335.3V119.2L379.3 69.9V47.6H300.1V70.5H344.6V71.1L300.1 120.8V142.6ZM263 142.6H292.1V47.7H263V142.6ZM195.5 142.6H224.5V99C224.5 79.2 236.4 70.4 254.5 72.9H255.1V47.9C253.6 47.3 251.9 47.2 249.2 47.2C237.9 47.2 230.3 52.4 223.8 63.5H223.2V47.7H195.5V142.6ZM142.3 124.4C129.5 124.4 121.7 116.1 120.2 103.3H188.6C188.8 82.9 183.4 66.6 172.1 56.4C164.1 49 153.6 44.9 140.2 44.9C111.6 44.9 91.8 66.6 91.8 95C91.8 123.6 110.7 145.4 142.1 145.4C154 145.4 163.4 142.2 171.2 136.9C179.5 131.2 185.5 122.8 187.1 114.5H159.3C156.6 120.7 150.8 124.4 142.3 124.4ZM140.8 65.6C151 65.6 158 73.2 159.2 84.3H120.4C122.7 73.1 128.8 65.6 140.8 65.6ZM34 142.6H64.4L97.4 47.7H68.3L49.8 108.7H49.4L30.9 47.7H1L34 142.6ZM263 13.9H292.1V39.7H263V13.9Z" fill="black"/>
</g>
<defs>
<clipPath id="clip0">
<rect width="658.2" height="146" fill="white"/>
</clipPath>
</defs>
</svg>
