<?xml version="1.0" encoding="UTF-8"?>
<svg width="300px" height="300px" viewBox="0 0 300 300" version="1.1" xmlns="http://www.w3.org/2000/svg" xmlns:xlink="http://www.w3.org/1999/xlink">
    <!-- Generator: Sketch 64 (93537) - https://sketch.com -->
    <title>cross-team-light</title>
    <desc>Created with Sketch.</desc>
    <g id="cross-team-light" stroke="none" stroke-width="1" fill="none" fill-rule="evenodd">
        <rect id="Rectangle-3" x="129.9" y="67.2" width="51" height="184.6" rx="25.5"></rect>
        <g id="Group-2" fill="#FFFFFF">
            <g id="Group" transform="translate(45.400000, 64.200000)">
                <path d="M85.330982,46.923971 C85.330982,49.2227516 83.4729929,51.0994461 81.1816581,51.0994461 C75.4008595,51.0994461 73.3293723,44.8719403 71.6592456,39.8717483 C71.2255032,38.5794652 70.5911201,36.6768532 69.9955477,35.3975422 C69.3999753,36.6768532 68.7655922,38.5794652 68.3383579,39.8717483 C66.6682312,44.8719403 64.596744,51.0994461 58.8095166,51.0994461 C53.0222892,51.0994461 50.950802,44.8719483 49.2806753,39.865302 C48.853441,38.5859911 48.219058,36.6962717 47.6299937,35.3975422 C47.0279131,36.6898254 46.4064669,38.5794652 45.9728039,39.8717483 C44.309106,44.8719403 42.2246818,51.0994461 36.4503913,51.0994461 C30.6696721,51.0994461 28.5916767,44.8719403 26.92155,39.8717483 C26.487887,38.566493 25.8534246,36.6768532 25.2579315,35.3975422 C24.6623591,36.6768532 24.0344048,38.566493 23.6007417,39.8717483 C21.930615,44.8719403 19.8461116,51.0994461 14.0589635,51.0994461 C8.27816491,51.0994461 6.40090539,44.8069998 4.53009051,39.8717483 C2.56865401,34.7351655 -1.40601411,31.2740623 0.529531972,28.6376073 C2.91821153,25.3906642 7.94804445,29.3323746 10.9710983,34.6118105 C12.6994806,37.6313823 13.4633911,40.4301885 14.0589635,41.7159458 C14.6609647,40.4367144 15.2953478,38.5340228 15.735519,37.2287674 C17.3992169,32.2285914 19.4771329,26.0141244 25.2643602,26.0141244 C31.0515876,26.0141244 33.1230749,32.2285914 34.7932015,37.2418192 C35.2204359,38.5340228 35.8548983,40.4237422 36.4503913,41.7094995 C37.0459638,40.4172163 37.673918,38.5405487 38.1075811,37.2418192 C39.7777078,32.2351173 41.849195,26.0141244 47.6299937,26.0141244 C53.4042842,26.0141244 55.4822002,32.2285914 57.1523268,37.2287674 C57.5795611,38.5340228 58.2204523,40.41077 58.8095166,41.7029736 C59.405089,40.4237422 60.032964,38.5340228 60.4667064,37.2352933 C62.1304043,32.2285914 64.2083203,26.0075985 69.9891189,26.0075985 C75.776267,26.0075985 77.8477542,32.2221451 79.518119,37.2352933 C80.1006751,38.9886059 81.0586388,41.8523525 81.7967549,42.8134076 C83.8031609,43.1186118 85.330982,44.8459721 85.330982,46.923971 Z" id="path0_fill" fill-rule="nonzero"></path>
                <path d="M12.845616,134.916325 L12.845616,105.471558 L14.4912529,98.4 L87.8610145,141.232272 L87.6019335,142.773759 C86.1994268,151.342198 82.557087,156.899899 76.78984,159.281771 C68.8305165,162.565859 60.191456,158.291907 59.8302926,158.101169 L58.8312437,157.595903 L58.5061745,156.647304 C55.8808939,148.893396 49.5657384,136.004534 43.7682284,134.401127 C43.0033858,134.189778 41.9322223,134.071183 40.3904318,135.107455 C38.9459259,136.066391 38.7174032,137.855368 39.9031233,139.680423 C40.8488798,141.163086 41.771533,141.684034 42.6645875,142.18868 L42.6963268,142.206624 C43.683861,142.758279 45.3396176,143.686255 45.3396176,145.671164 C45.2249871,146.949745 44.6288793,147.774606 43.6716082,148.300482 C39.9939862,150.303019 29.1593062,147.35096 28.5285804,147.178975 L28.5004579,147.171456 C20.7393204,144.742114 15.8456783,139.626085 12.845616,134.916325 Z M74.2849472,154.770691 C77.8789399,153.270431 80.3175493,149.517206 81.5457853,143.59862 L18.4889396,106.782932 L14.3651078,124.497369 C15.0390801,126.946234 18.9041336,138.855562 30.5050513,142.479893 C31.9921468,142.943913 34.0515089,143.356311 35.9537246,143.639879 C35.5688675,143.19652 35.1709456,142.691242 34.7975294,142.10869 C32.2335867,138.133754 33.1605949,133.602045 36.8028608,131.163479 C40.2520338,128.869286 43.4669268,129.080635 45.5623092,129.652888 C55.2069141,132.328645 61.9977896,149.388312 63.7436709,154.203569 C65.7064127,154.971729 70.342044,156.410132 74.2849472,154.770691 Z" id="path1_fill" fill-rule="nonzero" transform="translate(50.353315, 129.459262) scale(-1, -1) translate(-50.353315, -129.459262) "></path>
                <path d="M137.601807,27.8691551 L137.601807,161.731084 C137.601807,177.043342 125.179312,189.504826 109.908562,189.504826 C94.6378124,189.504826 82.2153985,177.043342 82.2153985,161.731084 L82.2153985,27.8691551 C82.2153985,12.5500527 94.6378124,0.0951743525 109.908562,0.0951743525 C125.179312,0.0951743525 137.601807,12.5500527 137.601807,27.8691551 Z M88.481646,161.731084 C88.481646,173.575633 98.0881482,183.218876 109.908562,183.218876 C121.728976,183.218876 131.32909,173.582159 131.32909,161.731084 L131.32909,27.8691551 C131.32909,16.0246852 121.728976,6.38150559 109.908562,6.38150559 C98.0946563,6.38150559 88.481646,16.0175226 88.481646,27.8691551 L88.481646,161.731084 Z" id="path2_fill" fill-rule="nonzero"></path>
                <path d="M141.8,138.593416 L141.8,87.6 C141.8,87.6 156.306189,95.7959108 149.743689,111.486544 C143.181189,127.177177 141.8,138.593416 141.8,138.593416 Z" id="Path-2"></path>
                <path d="M221.507155,82.5635557 L221.507155,77.0376283 L146.677576,36.7561906 C152.957198,33.2981844 169.172419,26.3733752 186.359652,35.0858601 C195.606263,39.7764619 208.810367,46.3278796 221.507155,52.5888942 L221.507155,47.2318421 C209.983813,41.5423394 198.394199,35.7835139 190.042772,31.5465808 C164.214342,18.4413663 139.763904,35.140079 139.518206,35.3115879 L137,37.0676728 L221.507155,82.5635557 Z" id="path3_fill" fill-rule="nonzero" transform="translate(179.253578, 54.547239) scale(-1, -1) translate(-179.253578, -54.547239) "></path>
                <path d="M109.913554,152.543092 C108.009832,152.543092 106.286544,153.317526 105.039047,154.568959 C103.789847,155.822101 103.017602,157.553411 103.017602,159.465535 C103.017602,161.377626 103.78985,163.108916 105.039049,164.362045 C106.286546,165.613467 108.009833,166.387897 109.913554,166.387897 C111.817313,166.387897 113.540619,165.613472 114.788126,164.362053 C116.037337,163.108924 116.809585,161.37763 116.809585,159.465535 C116.809585,157.553407 116.03734,155.822093 114.788128,154.568951 C113.540621,153.31752 111.817315,152.543092 109.913554,152.543092 Z" id="path4_fill" stroke="#FFFFFF" stroke-width="3" fill-rule="nonzero"></path>
                <path d="M109.913554,23.2114117 C108.009832,23.2114117 106.286544,23.9858457 105.039047,25.2372785 C103.789847,26.4904202 103.017602,28.2217306 103.017602,30.1338541 C103.017602,32.045946 103.78985,33.7772369 105.03905,35.0303669 C106.286547,36.2817886 108.009833,37.0562197 109.913554,37.0562197 C111.817313,37.0562197 113.540618,36.2817943 114.788125,35.0303745 C116.037337,33.7772444 116.809585,32.0459499 116.809585,30.1338541 C116.809585,28.2217266 116.03734,26.4904127 114.788128,25.2372708 C113.540621,23.98584 111.817315,23.2114117 109.913554,23.2114117 Z" id="path5_fill" stroke="#FFFFFF" stroke-width="3" fill-rule="nonzero"></path>
                <polygon id="path6_fill" fill-rule="nonzero" transform="translate(110.176557, 95.197809) rotate(45.000000) translate(-110.176557, -95.197809) " points="113.153658 83.2635393 107.199456 83.2635393 107.199456 92.2142416 98.2681527 92.2142416 98.2681527 98.1813764 107.199456 98.1813764 107.199456 107.132079 113.153658 107.132079 113.153658 98.1813764 122.084961 98.1813764 122.084961 92.2142416 113.153658 92.2142416"></polygon>
            </g>
        </g>
    </g>
</svg>