<svg width="1000" height="400" viewBox="0 0 1000 400" fill="none" xmlns="http://www.w3.org/2000/svg">
<g clip-path="url(#clip0)">
<path d="M550.595 85.9088C460.781 85.9088 392.836 155.677 392.836 242.106C392.836 333.221 463.645 398.303 550.595 398.303C637.544 398.303 708.093 333.221 708.093 242.106C708.093 155.677 640.408 85.9088 550.595 85.9088V85.9088ZM550.595 168.433C589.384 168.173 621.144 201.234 621.144 242.106C621.144 282.717 589.384 315.779 550.595 315.779C511.806 315.779 480.046 282.717 480.046 242.106C480.046 201.234 511.806 168.433 550.595 168.433Z" fill="white"/>
<path d="M1000 343.624C1000 373.822 975.529 398.293 945.331 398.293C915.133 398.293 890.662 373.822 890.662 343.624C890.662 313.425 915.133 288.955 945.331 288.955C975.529 288.955 1000 313.425 1000 343.624Z" fill="white"/>
<path d="M840.861 387.89H754.953V0.000427246H840.861V387.89Z" fill="white"/>
<path fill-rule="evenodd" clip-rule="evenodd" d="M0 387.89L156.197 0.000427246H236.899L390.493 387.89H281.155L262.932 333.221H127.561L109.338 387.89H0V387.89ZM236.899 252.519H156.197L196.548 122.355L236.899 252.519Z" fill="white"/>
</g>
<defs>
<clipPath id="clip0">
<rect width="1000" height="399.303" fill="white"/>
</clipPath>
</defs>
</svg>
