<svg width="788" height="144" viewBox="0 0 788 144" fill="none" xmlns="http://www.w3.org/2000/svg">
<path d="M19.4241 141.968H0.314209V83.9142H19.4241C39.6419 83.9142 50.4778 93.7911 50.4778 112.901C50.4778 131.848 41.4768 141.968 19.4241 141.968ZM18.0394 92.7456H11.7733V133.133H17.9009C33.6874 133.455 38.7765 125.748 38.7765 112.981C38.7765 98.9287 31.4717 92.7456 18.0394 92.7456Z" fill="white"/>
<path d="M67.9952 117.478C68.3068 112.178 70.9033 107.279 76.8925 107.279C82.7085 107.279 85.5819 111.613 85.3396 117.478H67.9952ZM77.2386 100.455C61.9715 100.455 56.6747 111.295 56.6747 121.49C56.6747 133.617 62.7677 142.688 75.7846 143.089C86.1358 143.172 95.31 140.039 95.9332 128.719H85.3396C85.3396 133.295 81.6353 136.266 77.3079 136.266C70.0032 136.266 67.6837 130.886 67.5798 124.301L96.8333 124.222C97.6988 112.178 92.4712 100.455 77.2386 100.455Z" fill="white"/>
<path d="M143.812 141.968H132.872L132.803 135.383C130.968 140.6 125.879 143.252 119.648 143.252C112.239 143.252 105.246 138.755 105.177 127.995V101.899H116.255V126.468C116.186 132.25 118.436 135.463 123.871 135.542C128.787 135.542 132.803 132.731 132.803 124.945V101.899H143.812V141.968Z" fill="white"/>
<path d="M158.006 102.062V95.716L168.703 90.0973V102.062H178.916V109.848H168.703V129.2C168.703 133.133 170.053 135.383 174.069 135.542C175.593 135.542 176.977 135.701 178.985 135.141V142.047C173.758 142.771 167.734 144.135 162.749 141.483C158.975 139.478 158.006 135.944 158.006 130.325V109.848H149.42V102.062H158.006Z" fill="white"/>
<path d="M220.494 124.703C222.26 128.238 222.19 132.894 220.009 136.107C216.236 141.885 208.031 143.332 201.696 143.172C192.695 142.608 184.698 140.282 185.078 129.522H196.018C195.914 134.178 198.822 135.864 202.977 136.023C206.993 136.023 211.008 134.659 211.008 130.966C211.008 127.995 208.204 126.711 204.604 125.908C200.484 125.025 197.541 124.623 192.937 122.775C189.267 121.009 185.632 118.039 185.632 112.42C185.632 107.76 189.267 104.229 194.01 102.301C197.195 100.937 201.142 100.535 204.535 100.535C212.151 100.535 220.425 103.183 219.94 112.818H209.658C209.658 111.374 209.347 109.768 208.135 108.806C205.885 106.798 198.961 106.555 196.814 109.848C194.391 115.47 201.869 115.871 210.143 118.118C215.37 119.323 218.902 121.49 220.494 124.703Z" fill="white"/>
<path d="M247.878 100.372C256.637 100.372 265.707 104.388 265.707 115.39L254.94 115.307C254.94 110.17 252.136 107.037 246.839 107.279C245.455 107.359 244.001 107.84 242.824 108.484C239.5 110.412 238.462 115.792 238.462 121.172C238.462 126.87 239.846 132.413 242.339 134.417C244.001 136.023 246.978 136.508 249.54 136.023C253.798 135.303 255.079 131.125 255.183 127.514L265.707 127.434C265.846 138.914 256.464 143.252 246.666 143.089C233.58 142.608 227.556 134.099 227.556 121.49C227.556 108.726 234.861 100.372 247.878 100.372Z" fill="white"/>
<path d="M274.189 83.9938H285.267V108.241C288.175 103.104 292.503 100.857 298.353 100.857C305.762 100.857 312.755 106.396 312.755 114.345V141.968H301.815V117.395C301.815 111.935 299.496 108.324 294.268 108.324C289.387 108.324 285.198 111.534 285.198 118.921V141.968H274.189V83.9938Z" fill="white"/>
<path d="M332.661 117.478C332.973 112.178 335.535 107.279 341.558 107.279C347.34 107.279 350.248 111.613 350.006 117.478H332.661ZM341.905 100.455C326.637 100.455 321.341 111.295 321.341 121.49C321.341 133.617 327.434 142.688 340.451 143.089C350.802 143.172 359.976 140.039 360.599 128.719H350.006C350.006 133.295 346.301 136.266 341.974 136.266C334.669 136.266 332.35 130.886 332.246 124.301L361.499 124.222C362.365 112.178 357.137 100.455 341.905 100.455Z" fill="white"/>
<path d="M429.803 140.282C426.064 141.483 421.218 141.968 416.025 141.968H395.045V84.0735H417.375C427.345 84.0735 437.766 87.2065 438.181 98.3678C438.424 105.434 433.612 109.927 427.588 111.935C432.227 113.14 436 114.504 438.562 118.842C440.812 122.695 440.985 127.836 439.151 132.091C437.212 136.107 434.235 138.755 429.803 140.282ZM417.375 92.7456H406.054V107.76H417.548C423.572 107.76 426.688 105.271 426.688 100.372C426.688 95.7956 423.087 92.7456 417.375 92.7456ZM418.517 116.432L406.054 116.353V133.375H418.102C426.134 133.375 428.696 129.439 428.696 124.544C428.696 120.77 425.961 116.353 418.517 116.432Z" fill="white"/>
<path d="M464.838 136.186C460.753 135.864 458.33 133.856 458.33 130.003C458.399 121.573 469.096 122.456 474.636 122.456C474.878 129.12 474.324 136.023 464.838 136.186ZM485.16 112.901C485.16 104.71 476.332 100.615 466.119 100.694C456.391 100.857 449.329 103.987 449.19 113.382H459.853C459.611 109.045 462.588 106.798 466.535 106.718C472.455 106.718 475.12 109.446 474.566 116.193C468.681 116.512 460.822 116.11 454.972 118.842C450.714 120.85 447.425 124.623 447.425 130.644C447.425 138.353 452.791 143.01 460.649 143.252C466.292 143.813 472.697 141.324 475.19 136.107L475.605 141.968H485.16C485.16 132.25 485.16 122.695 485.16 112.901Z" fill="white"/>
<path d="M495.823 101.899H506.901V108.324C509.809 103.104 515.106 100.857 521.06 100.857C527.707 100.857 534.527 104.71 534.527 114.345V141.968H523.449V117.395C523.518 112.178 520.956 108.324 515.902 108.324C510.917 108.324 506.832 111.534 506.832 118.921V141.968H495.823V101.899Z" fill="white"/>
<path d="M573.301 141.968L556.441 119.001L571.709 101.899H584.726L568.904 118.599L587.53 141.968H573.301ZM545.225 83.9938H556.13V141.968H545.225V83.9938Z" fill="white"/>
<path d="M646.279 0.308167H787.284V141.884H646.279V0.308167ZM731.962 33.8406L676.883 107.764H701.774L757.061 33.8406H731.962ZM665.908 122.276H767.655V19.9201H665.908V122.276Z" fill="white"/>
</svg>
