<svg width="210" height="50" viewBox="0 0 210 50" fill="none" xmlns="http://www.w3.org/2000/svg">
<path fill-rule="evenodd" clip-rule="evenodd" d="M200.121 10.3466V16.1755C197.101 15.0355 194.413 14.4591 192.059 14.4591C190.666 14.4591 189.556 14.7172 188.721 15.2162C187.887 15.7195 187.461 16.339 187.461 17.0703C187.461 18.0425 188.403 18.9071 190.3 19.6815L195.78 22.3486C200.211 24.4608 202.41 27.2655 202.41 30.7887C202.41 33.7182 201.244 36.0541 198.891 37.7834C196.555 39.53 193.41 40.3946 189.496 40.3946C187.689 40.3946 186.067 40.3172 184.626 40.1537C183.185 39.9989 181.529 39.6805 179.692 39.2245V33.1246C183.06 34.2646 186.127 34.841 188.889 34.841C192.184 34.841 193.823 33.886 193.823 31.9588C193.823 30.9995 193.152 30.2252 191.788 29.6186L185.701 27.0246C183.456 26.0094 181.787 24.7791 180.694 23.3208C179.619 21.8496 179.072 20.1633 179.072 18.2361C179.072 15.5388 180.208 13.3664 182.453 11.7145C184.716 10.0755 187.719 9.25391 191.453 9.25391C192.666 9.25391 194.064 9.36141 195.613 9.55931C197.174 9.77011 198.676 10.0282 200.121 10.3466V10.3466Z" fill="white"/>
<path fill-rule="evenodd" clip-rule="evenodd" d="M27.7222 10.3466V16.1755C24.7023 15.0355 22.018 14.4591 19.6649 14.4591C18.2668 14.4591 17.1613 14.7172 16.3267 15.2162C15.4922 15.7195 15.0663 16.339 15.0663 17.0703C15.0663 18.0425 16.0213 18.9071 17.9184 19.6815L23.3989 22.3486C27.8125 24.4608 30.0151 27.2655 30.0151 30.7887C30.0151 33.7182 28.845 36.0541 26.5091 37.7834C24.156 39.53 21.0286 40.3946 17.1011 40.3946C15.2943 40.3946 13.6682 40.3172 12.2271 40.1537C10.786 39.9989 9.147 39.6805 7.2973 39.2245V33.1246C10.6785 34.2646 13.7457 34.841 16.4902 34.841C19.7854 34.841 21.4244 33.886 21.4244 31.9588C21.4244 30.9995 20.7576 30.2252 19.4068 29.6186L13.3198 27.0246C11.057 26.0094 9.3879 24.7791 8.3125 23.3208C7.2198 21.8496 6.6864 20.1633 6.6864 18.2361C6.6864 15.5388 7.8135 13.3664 10.0719 11.7145C12.3175 10.0755 15.3244 9.25391 19.0584 9.25391C20.2844 9.25391 21.6653 9.36141 23.2311 9.55931C24.7798 9.77011 26.2811 10.0282 27.7222 10.3466V10.3466Z" fill="white"/>
<path fill-rule="evenodd" clip-rule="evenodd" d="M34.0028 9.8002H42.9291V39.8483H34.0028V9.8002Z" fill="white"/>
<path fill-rule="evenodd" clip-rule="evenodd" d="M71.6866 9.8002V15.3539H58.4241V22.0173H69.9272V27.0246H58.4241V34.0194H71.9576V39.8483H49.8335V9.8002H71.6866Z" fill="white"/>
<path fill-rule="evenodd" clip-rule="evenodd" d="M113.358 9.8002V39.8483H105.025V20.0299L96.3789 40.1236H91.234L82.9186 20.0299V39.8483H76.8918V9.8002H87.7882L95.226 28.1947L103.008 9.8002H113.358Z" fill="white"/>
<path fill-rule="evenodd" clip-rule="evenodd" d="M142.103 9.8002V15.3539H128.913V22.0173H140.416V27.0246H128.913V34.0194H142.374V39.8483H120.25V9.8002H142.103Z" fill="white"/>
<path fill-rule="evenodd" clip-rule="evenodd" d="M173.424 9.8002V39.8483H163.956L153.331 20.5762V39.8483H147.308V9.8002H157.052L167.402 28.7411V9.8002H173.424Z" fill="white"/>
</svg>
