<svg width="1024" height="240" viewBox="0 0 1024 240" fill="none" xmlns="http://www.w3.org/2000/svg">
<path d="M894.825 131.169C894.825 137.103 895.043 137.26 900.369 137.26H918.163C918.918 137.26 919.561 137.898 919.561 138.674V143.193C919.561 144.193 919.205 144.548 918.163 144.683C915.904 145.041 911.333 145.673 902.978 145.673C891.296 145.673 885.122 145.755 885.122 131.169V108.777C885.122 94.1939 891.296 94.2788 902.978 94.2788C911.333 94.2788 915.904 94.9168 918.163 95.2625C919.205 95.3976 919.561 95.7591 919.561 96.7553V101.275C919.561 102.048 918.918 102.695 918.163 102.695H900.369C895.043 102.695 894.825 102.856 894.825 108.777V115.266H917.311C918.091 115.266 918.706 115.911 918.706 116.678V121.788C918.706 122.558 918.091 123.196 917.311 123.196H894.825V131.169ZM998.732 145.708C992.52 145.708 986.227 144.63 982.851 143.847C982.155 143.706 981.516 143.219 981.516 142.439V137.341C981.516 136.568 982.155 135.993 982.851 135.993H982.991C985.806 136.348 992.38 137.272 998.876 137.272C1005.12 137.272 1007.04 135.019 1007.04 130.914C1007.04 125.606 994.458 122.671 988.317 120.119C982.205 117.576 980.04 112.696 980.04 107.749C980.04 99.9578 986.261 94.3008 999.328 94.3008C1006.02 94.3008 1012.15 95.5831 1014.54 96.1582C1015.25 96.2965 1015.81 96.793 1015.81 97.497V102.736C1015.81 103.437 1015.32 104.009 1014.61 104.009H1014.48C1009.83 103.588 1005.03 102.724 998.919 102.724C993.709 102.724 989.815 104.565 989.815 107.749C989.815 110.078 992.455 112.218 995.575 113.466C998.695 114.704 1002.78 116.31 1007.46 118.202C1013.37 120.615 1017.21 124.126 1017.21 130.914C1017.21 138.058 1012.79 145.708 998.732 145.708ZM961.376 110.269C961.376 104.961 957.285 102.695 950.246 102.695C948.78 102.695 942.387 102.837 941.12 102.978V118.324C942.259 118.397 949.073 118.538 950.246 118.538C957.501 118.538 961.376 117.133 961.376 110.911V110.269ZM971.918 145.114H963.338C962.564 145.114 962.29 144.394 961.944 143.696L951.813 126.533H950.246C948.431 126.533 942.746 126.332 941.12 126.251V143.696C941.12 144.469 940.565 145.114 939.797 145.114H932.777C932.004 145.114 931.37 144.469 931.37 143.696V97.3147C931.37 95.8942 932.203 95.3976 933.61 95.1933C937.261 94.6276 945.13 94.2788 950.246 94.2788C961.076 94.2788 971.063 98.1727 971.063 110.269V110.911C971.063 118.4 967.335 122.504 961.575 124.758L972.617 143.696C972.758 143.91 972.758 144.111 972.758 144.268C972.758 144.752 972.474 145.114 971.918 145.114ZM876.501 103.044H862.486V143.696C862.486 144.469 861.84 145.114 861.063 145.114H854.111C853.338 145.114 852.704 144.469 852.704 143.696V103.044H838.676C837.915 103.044 837.279 102.557 837.279 101.774V96.1833C837.279 95.3976 837.915 94.8382 838.676 94.8382H876.501C877.262 94.8382 877.896 95.3976 877.896 96.1833V101.774C877.896 102.557 877.262 103.044 876.501 103.044ZM809.242 145.673C797.938 145.673 788.2 140.72 788.2 125.638V96.1833C788.2 95.3976 788.84 94.8382 789.614 94.8382H796.556C797.336 94.8382 797.963 95.3976 797.963 96.1833V125.638C797.963 133.712 801.666 137.536 809.242 137.536C816.836 137.536 820.533 133.712 820.533 125.638V96.1833C820.533 95.3976 821.16 94.8382 821.934 94.8382H828.889C829.669 94.8382 830.302 95.3976 830.302 96.1833V125.638C830.302 140.72 820.558 145.673 809.242 145.673ZM752.959 131.169C752.959 137.103 753.184 137.26 758.497 137.26H776.288C777.062 137.26 777.695 137.898 777.695 138.674V143.193C777.695 144.193 777.339 144.548 776.288 144.683C774.038 145.041 769.461 145.673 761.106 145.673C749.443 145.673 743.259 145.755 743.259 131.169V108.777C743.259 94.1939 749.443 94.2788 761.106 94.2788C769.461 94.2788 774.038 94.9168 776.288 95.2625C777.339 95.3976 777.695 95.7591 777.695 96.7553V101.275C777.695 102.048 777.062 102.695 776.288 102.695H758.497C753.184 102.695 752.959 102.856 752.959 108.777V115.266H775.445C776.219 115.266 776.853 115.911 776.853 116.678V121.788C776.853 122.558 776.219 123.196 775.445 123.196H752.959V131.169ZM722.844 110.269C722.844 104.961 718.754 102.695 711.728 102.695C710.249 102.695 703.856 102.837 702.598 102.978V118.324C703.715 118.397 710.52 118.538 711.728 118.538C718.957 118.538 722.844 117.133 722.844 110.911V110.269ZM733.387 145.114H724.807C724.039 145.114 723.752 144.394 723.403 143.696L713.281 126.533H711.728C709.893 126.533 704.215 126.332 702.598 126.251V143.696C702.598 144.469 702.034 145.114 701.26 145.114H694.234C693.466 145.114 692.833 144.469 692.833 143.696V97.3147C692.833 95.8942 693.666 95.3976 695.079 95.1933C698.736 94.6276 706.592 94.2788 711.728 94.2788C722.545 94.2788 732.538 98.1727 732.538 110.269V110.911C732.538 118.4 728.816 122.504 723.057 124.758L734.08 143.696C734.226 143.91 734.226 144.111 734.226 144.268C734.226 144.752 733.946 145.114 733.387 145.114ZM596.872 116.354C596.872 107.013 591.266 102.837 584.38 102.837C577.494 102.837 571.887 107.013 571.887 116.354V123.595C571.887 132.938 577.494 137.109 584.38 137.109C591.266 137.109 596.872 132.938 596.872 123.595V116.354ZM584.38 145.673C572.789 145.673 562.056 139.164 562.056 123.595V116.354C562.056 100.788 572.789 94.2788 584.38 94.2788C595.971 94.2788 606.7 100.788 606.7 116.354V123.595C606.7 139.164 595.971 145.673 584.38 145.673ZM534.715 145.708C528.512 145.708 522.209 144.63 518.834 143.847C518.131 143.706 517.498 143.219 517.498 142.439V137.341C517.498 136.568 518.131 135.993 518.834 135.993H518.974C521.782 136.348 528.359 137.272 534.855 137.272C541.114 137.272 543.008 135.019 543.008 130.914C543.008 125.606 530.449 122.671 524.312 120.119C518.188 117.576 516.025 112.696 516.025 107.749C516.025 99.9578 522.253 94.3008 535.317 94.3008C542.016 94.3008 548.146 95.5831 550.527 96.1582C551.235 96.2965 551.788 96.793 551.788 97.497V102.736C551.788 103.437 551.301 104.009 550.602 104.009H550.461C545.816 103.588 541.008 102.724 534.889 102.724C529.704 102.724 525.791 104.565 525.791 107.749C525.791 110.078 528.437 112.224 531.545 113.466C534.665 114.704 538.768 116.31 543.435 118.202C549.369 120.615 553.204 124.126 553.204 130.914C553.204 138.058 548.78 145.708 534.715 145.708ZM657.713 145.114H650.606C648.918 145.114 647.439 145.114 646.335 142.568L627.274 110.411C627.071 109.99 626.853 109.836 626.647 109.836C626.444 109.836 626.291 109.99 626.291 110.411V143.696C626.291 144.469 625.727 145.114 624.953 145.114H618.993C618.207 145.114 617.589 144.469 617.589 143.696V97.6667C617.589 96.1079 618.841 94.8382 620.388 94.8382H627.979C629.455 94.8382 630.223 95.2625 631.077 97.1136L650.893 131.169C651.027 131.515 651.236 131.738 651.455 131.738C651.595 131.738 651.795 131.515 651.795 131.097V96.1833C651.795 95.3976 652.356 94.8382 653.136 94.8382H659.18C659.954 94.8382 660.521 95.3976 660.521 96.1833V142.279C660.521 143.841 659.255 145.114 657.713 145.114ZM503.377 145.114H496.279C495.652 145.114 495.165 144.394 495.165 143.696V113.095C495.165 112.601 495.09 112.391 494.937 112.391C494.884 112.391 494.74 112.601 494.591 112.812L483.246 138.118C482.831 138.888 481.923 139.325 481.012 139.325H477.359C476.444 139.325 475.53 138.888 475.118 138.118L463.699 112.812C463.552 112.601 463.406 112.391 463.346 112.391C463.206 112.391 463.131 112.601 463.131 113.095V143.696C463.131 144.394 462.638 145.114 462.005 145.114H454.916C454.28 145.114 453.712 144.752 453.712 144.051V97.6667C453.712 96.1079 454.982 94.8382 456.526 94.8382H462.289C463.406 94.8382 464.395 95.5422 464.888 96.5353L478.37 124.183C478.716 124.817 478.862 125.173 479.156 125.173C479.43 125.173 479.571 124.817 479.926 124.183L493.399 96.5353C493.892 95.5422 494.884 94.8382 496.001 94.8382H501.767C503.311 94.8382 504.575 96.1079 504.575 97.6667V144.051C504.575 144.752 504.01 145.114 503.377 145.114ZM432.995 116.354C432.995 107.013 427.394 102.837 420.505 102.837C413.622 102.837 408.015 107.013 408.015 116.354V123.595C408.015 132.938 413.622 137.109 420.505 137.109C427.394 137.109 432.995 132.938 432.995 123.595V116.354ZM420.505 145.673C408.914 145.673 398.184 139.164 398.184 123.595V116.354C398.184 100.788 408.914 94.2788 420.505 94.2788C432.102 94.2788 442.838 100.788 442.838 116.354V123.595C442.838 139.164 432.102 145.673 420.505 145.673ZM385.685 145.114H378.737C377.954 145.114 377.317 144.469 377.317 143.696V123.196H355.062V143.696C355.062 144.469 354.432 145.114 353.67 145.114H346.709C345.929 145.114 345.299 144.469 345.299 143.696V96.1833C345.299 95.3976 345.929 94.8382 346.709 94.8382H353.67C354.432 94.8382 355.062 95.3976 355.062 96.1833V114.562H377.317V96.1833C377.317 95.3976 377.954 94.8382 378.737 94.8382H385.685C386.45 94.8382 387.086 95.3976 387.086 96.1833V143.696C387.086 144.469 386.45 145.114 385.685 145.114ZM334.991 103.044H320.972V143.696C320.972 144.469 320.342 145.114 319.559 145.114H312.617C311.843 145.114 311.213 144.469 311.213 143.696V103.044H297.179C296.408 103.044 295.771 102.557 295.771 101.774V96.1833C295.771 95.3976 296.408 94.8382 297.179 94.8382H334.991C335.764 94.8382 336.398 95.3976 336.398 96.1833V101.774C336.398 102.557 335.764 103.044 334.991 103.044Z" fill="white"/>
<path d="M118.103 81.7918C116.094 82.8835 115.377 85.4289 116.437 87.4315C117.504 89.484 120.043 90.2139 122.052 89.1409C124.061 88.0304 124.797 85.51 123.724 83.47C122.988 82.085 121.553 81.2865 120.074 81.2865C119.407 81.2865 118.727 81.4487 118.103 81.7918ZM129.226 81.9665C127.43 82.9272 126.793 85.1669 127.735 86.9761C128.684 88.7728 130.911 89.4465 132.689 88.4608C134.51 87.4814 135.147 85.248 134.199 83.445C133.556 82.216 132.296 81.4986 130.986 81.4986C130.393 81.4986 129.788 81.6545 129.226 81.9665ZM107.547 84.9485C105.276 86.19 104.416 89.0597 105.663 91.3368C106.898 93.6264 109.731 94.5185 112.033 93.2708C114.31 92.0293 115.14 89.1596 113.917 86.8825C113.075 85.2854 111.453 84.3746 109.774 84.3746C109.026 84.3746 108.258 84.5617 107.547 84.9485ZM139.901 85.4726C138.328 86.3522 137.723 88.3423 138.566 89.9019C139.408 91.4741 141.404 92.0543 142.92 91.1933C144.517 90.3387 145.091 88.3735 144.23 86.8076C143.662 85.7096 142.54 85.092 141.385 85.092C140.88 85.092 140.368 85.2168 139.901 85.4726ZM99.175 92.0855C97.135 93.2084 96.3864 95.6976 97.4844 97.7626C98.5824 99.7714 101.053 100.526 103.068 99.4345C105.114 98.3428 105.857 95.7974 104.771 93.7948C104.029 92.3911 102.588 91.5801 101.115 91.5801C100.454 91.5801 99.7864 91.7423 99.175 92.0855ZM149.084 92.1354C147.717 92.8902 147.225 94.5684 147.936 95.9097C148.66 97.251 150.325 97.7438 151.704 97.0514C153.033 96.2903 153.557 94.6121 152.827 93.2583C152.315 92.3288 151.361 91.7922 150.388 91.7922C149.945 91.7922 149.502 91.9045 149.084 92.1354ZM155.871 101.244C154.798 101.874 154.355 103.315 154.973 104.413C155.572 105.542 156.976 105.948 158.061 105.349C159.19 104.744 159.608 103.359 158.997 102.229C158.573 101.431 157.774 100.988 156.938 100.988C156.582 100.988 156.214 101.069 155.871 101.244ZM93.1986 101.537C91.4144 102.516 90.7531 104.775 91.6889 106.565C92.6745 108.349 94.9016 109.042 96.6796 108.056C98.4701 107.102 99.1564 104.843 98.1894 103.034C97.5094 101.805 96.2367 101.1 94.9328 101.1C94.3464 101.1 93.7539 101.244 93.1986 101.537ZM159.328 111.213C157.961 111.93 157.45 113.646 158.192 114.994C158.891 116.341 160.6 116.84 161.892 116.148C163.252 115.355 163.769 113.665 163.058 112.33C162.553 111.4 161.598 110.876 160.625 110.876C160.182 110.876 159.733 110.988 159.328 111.213ZM90.2788 112.486C88.7317 113.322 88.1577 115.293 88.9875 116.853C89.8484 118.443 91.7887 119.024 93.3608 118.175C94.9142 117.321 95.5068 115.324 94.6646 113.777C94.0844 112.691 92.9864 112.074 91.8448 112.074C91.3145 112.074 90.7779 112.211 90.2788 112.486ZM159.34 121.781C157.768 122.655 157.213 124.601 158.024 126.204C158.853 127.751 160.862 128.319 162.409 127.489C163.975 126.635 164.537 124.663 163.688 123.097C163.114 122.006 162.023 121.394 160.875 121.394C160.357 121.394 159.839 121.525 159.34 121.781ZM90.7405 123.84C89.418 124.582 88.9189 126.285 89.6426 127.627C90.3787 128.993 92.0569 129.467 93.3732 128.718C94.7145 128.032 95.2572 126.304 94.4961 124.963C93.9783 124.046 93.0363 123.509 92.0506 123.509C91.6139 123.509 91.1648 123.615 90.7405 123.84ZM156.002 131.881C154.199 132.836 153.551 135.132 154.499 136.928C155.478 138.713 157.706 139.386 159.459 138.426C161.293 137.427 161.923 135.2 160.993 133.385C160.32 132.15 159.053 131.438 157.743 131.438C157.156 131.438 156.558 131.576 156.002 131.881ZM94.5961 134.608C93.4731 135.2 93.0675 136.61 93.6727 137.771C94.2716 138.875 95.6566 139.305 96.7983 138.713C97.9087 138.076 98.3267 136.673 97.7153 135.55C97.2974 134.776 96.4926 134.333 95.6691 134.333C95.3072 134.333 94.9392 134.42 94.5961 134.608ZM149.595 140.522C147.574 141.626 146.838 144.159 147.923 146.174C148.984 148.202 151.504 148.956 153.532 147.84C155.541 146.792 156.283 144.215 155.191 142.206C154.43 140.821 153.008 140.01 151.542 140.01C150.887 140.01 150.219 140.172 149.595 140.522ZM100.997 142.924C99.6493 143.635 99.1501 145.344 99.8738 146.686C100.579 148.039 102.257 148.538 103.598 147.79C104.933 147.091 105.439 145.4 104.721 144.047C104.235 143.123 103.28 142.606 102.294 142.606C101.851 142.606 101.409 142.705 100.997 142.924ZM140.643 146.704C138.366 147.927 137.492 150.791 138.759 153.093C139.994 155.382 142.839 156.224 145.129 155.014C147.393 153.754 148.235 150.872 147.019 148.632C146.17 147.035 144.555 146.118 142.883 146.118C142.128 146.118 141.36 146.305 140.643 146.704ZM109.756 148.757C108.159 149.624 107.591 151.564 108.452 153.136C109.263 154.721 111.228 155.326 112.788 154.478C114.36 153.585 114.946 151.608 114.104 150.048C113.511 148.981 112.395 148.364 111.266 148.364C110.754 148.364 110.23 148.482 109.756 148.757ZM130.624 150.828C128.603 151.907 127.898 154.428 129.002 156.48C130.05 158.489 132.552 159.287 134.573 158.146C136.6 157.079 137.324 154.54 136.251 152.519C135.49 151.121 134.068 150.329 132.595 150.329C131.928 150.329 131.254 150.491 130.624 150.828ZM119.943 151.477C118.153 152.45 117.517 154.715 118.465 156.499C119.444 158.308 121.671 158.982 123.462 158.015C125.271 157.067 125.926 154.796 124.959 152.974C124.304 151.739 123.025 151.053 121.703 151.053C121.104 151.053 120.505 151.184 119.943 151.477Z" fill="white"/>
<path d="M119.931 70.4064C119.101 73.2137 120.692 76.1396 123.481 76.9819C126.269 77.8116 129.183 76.1833 130.006 73.4072C130.842 70.5998 129.245 67.6365 126.469 66.8255C125.964 66.6695 125.458 66.6008 124.959 66.6008C122.676 66.6008 120.611 68.1043 119.931 70.4064ZM134.011 72.1158C133.082 75.3598 134.854 78.7162 138.104 79.6769C141.304 80.6314 144.654 78.7973 145.584 75.5907C146.557 72.3341 144.723 68.9403 141.504 67.9858C140.936 67.8236 140.368 67.7425 139.807 67.7425C137.187 67.7425 134.772 69.4706 134.011 72.1158ZM105.794 73.351C105.071 75.8527 106.499 78.4604 108.976 79.1965C111.446 79.9327 114.06 78.5228 114.778 76.0086C115.483 73.5257 114.06 70.9055 111.609 70.1693C111.172 70.0446 110.735 69.9822 110.305 69.9822C108.271 69.9822 106.406 71.3172 105.794 73.351ZM148.267 78.8035C147.437 81.6046 149.046 84.543 151.829 85.3728C154.617 86.2025 157.537 84.568 158.354 81.7731C159.184 78.972 157.593 76.0274 154.805 75.1976C154.312 75.0479 153.819 74.9793 153.326 74.9793C151.043 74.9793 148.953 76.5015 148.267 78.8035ZM93.6415 80.8623C93.0675 82.8399 94.1656 84.8799 96.1308 85.4663C98.0772 86.0403 100.123 84.9049 100.704 82.9522C101.271 80.9933 100.148 78.9345 98.1957 78.3481C97.8526 78.2421 97.5031 78.1921 97.16 78.1921C95.5629 78.1921 94.1031 79.2465 93.6415 80.8623ZM159.683 89.2906C158.941 91.8172 160.376 94.4062 162.84 95.1424C165.329 95.8723 167.906 94.4249 168.648 91.9357C169.39 89.4653 167.974 86.8451 165.479 86.1214C165.042 85.9904 164.599 85.928 164.163 85.928C162.16 85.928 160.301 87.2568 159.683 89.2906ZM84.0279 91.9919C83.5538 93.564 84.4771 95.2422 86.0492 95.6976C87.6276 96.1655 89.262 95.2609 89.7423 93.6763C90.229 92.1042 89.2995 90.4322 87.7336 89.9456C87.4653 89.8708 87.1907 89.8333 86.9162 89.8333C85.6124 89.8333 84.4147 90.6693 84.0279 91.9919ZM167.799 102.785C167.194 104.787 168.355 106.833 170.289 107.407C172.254 107.988 174.288 106.865 174.862 104.893C175.436 102.922 174.325 100.869 172.379 100.302C172.029 100.196 171.674 100.146 171.324 100.146C169.727 100.146 168.255 101.194 167.799 102.785ZM78.3694 105.81C78.0263 107.008 78.6752 108.268 79.8605 108.611C81.0521 108.961 82.2811 108.268 82.6305 107.083C82.9736 105.898 82.306 104.656 81.1144 104.294C80.9023 104.238 80.6964 104.207 80.4905 104.207C79.5298 104.207 78.6502 104.837 78.3694 105.81ZM171.243 117.795C170.769 119.373 171.667 121.064 173.264 121.519C174.849 121.993 176.496 121.076 176.964 119.479C177.42 117.913 176.534 116.235 174.943 115.755C174.668 115.68 174.387 115.636 174.119 115.636C172.815 115.636 171.605 116.485 171.243 117.795ZM75.6992 120.527C75.2251 122.106 76.1547 123.765 77.7269 124.239C79.299 124.713 80.9523 123.821 81.4202 122.218C81.8943 120.633 80.9958 118.968 79.4112 118.487C79.1367 118.4 78.8623 118.369 78.5878 118.369C77.2964 118.369 76.1048 119.23 75.6992 120.527ZM170.033 132.948C169.708 134.127 170.364 135.394 171.53 135.724C172.728 136.074 173.951 135.4 174.288 134.202C174.649 133.023 173.976 131.763 172.79 131.413C172.591 131.357 172.385 131.332 172.185 131.332C171.231 131.332 170.32 131.969 170.033 132.948ZM77.8266 135.138C77.2776 137.097 78.3321 139.168 80.3159 139.742C82.2437 140.335 84.3023 139.187 84.8763 137.209C85.444 135.25 84.3211 133.191 82.3871 132.649C82.0253 132.536 81.6634 132.487 81.3016 132.487C79.717 132.487 78.2696 133.528 77.8266 135.138ZM162.927 146.33C162.466 147.927 163.37 149.599 164.923 150.048C166.527 150.522 168.186 149.605 168.648 148.027C169.103 146.455 168.205 144.764 166.627 144.29C166.352 144.209 166.071 144.171 165.791 144.171C164.499 144.171 163.308 145.02 162.927 146.33ZM84.0153 148.071C83.2792 150.56 84.6829 153.167 87.1721 153.916C89.6738 154.658 92.244 153.224 92.9926 150.728C93.7225 148.239 92.2815 145.606 89.8048 144.864C89.3681 144.733 88.9252 144.67 88.4885 144.67C86.4734 144.67 84.6267 146.012 84.0153 148.071ZM151.966 157.067C151.404 159.019 152.54 161.084 154.474 161.671C156.414 162.251 158.454 161.115 159.022 159.175C159.615 157.191 158.498 155.133 156.551 154.559C156.196 154.453 155.846 154.403 155.503 154.403C153.906 154.403 152.44 155.463 151.966 157.067ZM94.3215 158.264C93.5105 161.041 95.0764 163.985 97.8776 164.821C100.672 165.632 103.58 164.023 104.416 161.228C105.214 158.445 103.629 155.476 100.828 154.658C100.329 154.509 99.8301 154.44 99.3435 154.44C97.0664 154.44 94.989 155.937 94.3215 158.264ZM107.073 164.453C106.15 167.716 107.947 171.066 111.172 172.027C114.372 172.956 117.754 171.103 118.665 167.903C119.607 164.671 117.791 161.284 114.566 160.329C113.998 160.161 113.424 160.086 112.862 160.086C110.242 160.086 107.834 161.795 107.073 164.453ZM137.886 164.004C137.162 166.506 138.603 169.126 141.061 169.849C143.556 170.586 146.139 169.163 146.869 166.655C147.599 164.185 146.195 161.558 143.706 160.828C143.263 160.691 142.814 160.629 142.371 160.629C140.35 160.629 138.478 161.964 137.886 164.004ZM122.645 166.643C121.834 169.425 123.437 172.345 126.219 173.187C129.014 174.029 131.94 172.413 132.733 169.625C133.544 166.811 131.978 163.867 129.189 163.043C128.684 162.9 128.185 162.825 127.692 162.825C125.415 162.825 123.325 164.322 122.645 166.643Z" fill="white"/>
<path d="M130.031 52.2334C127.773 54.6539 127.879 58.4782 130.299 60.7678C132.708 63.0573 136.507 62.945 138.759 60.5182C141.03 58.0789 140.905 54.2734 138.503 51.9776C137.349 50.8858 135.877 50.3431 134.411 50.3431C132.814 50.3431 131.217 50.9794 130.031 52.2334ZM111.054 53.7119C109.269 55.6334 109.357 58.6341 111.266 60.4433C113.143 62.2338 116.138 62.134 117.935 60.2312C119.7 58.3284 119.619 55.3027 117.729 53.5123C116.812 52.6451 115.651 52.2271 114.491 52.2271C113.237 52.2271 111.983 52.7262 111.054 53.7119ZM148.628 57.324C146.077 60.0503 146.189 64.3362 148.897 66.9252C151.604 69.5018 155.903 69.3645 158.436 66.6507C160.981 63.9182 160.869 59.6074 158.161 57.0496C156.845 55.8018 155.179 55.1842 153.526 55.1842C151.735 55.1842 149.957 55.9079 148.628 57.324ZM92.9428 61.0921C91.5017 62.6393 91.5703 65.0537 93.0987 66.5322C94.6522 67.9796 97.0603 67.9109 98.5076 66.3638C99.955 64.8228 99.8739 62.3898 98.3517 60.9362C97.6031 60.2312 96.6611 59.8819 95.719 59.8819C94.7084 59.8819 93.6977 60.2936 92.9428 61.0921ZM164.362 67.9546C161.411 71.0801 161.53 76.0086 164.668 78.9782C167.781 81.954 172.697 81.7918 175.617 78.6849C178.567 75.5033 178.424 70.5686 175.311 67.6052C173.814 66.1828 171.905 65.4904 170.008 65.4904C167.937 65.4904 165.884 66.3139 164.362 67.9546ZM77.9017 74.0497C76.81 75.2101 76.866 77.013 78.0139 78.1048C79.1742 79.209 80.971 79.1404 82.0316 77.9925C83.1171 76.8383 83.0672 75.0229 81.9255 73.9312C81.3641 73.4134 80.659 73.1576 79.9541 73.1576C79.2054 73.1576 78.4569 73.457 77.9017 74.0497ZM177.282 84.5243C174.724 87.2443 174.843 91.5489 177.569 94.1255C180.283 96.7082 184.55 96.546 187.089 93.8322C189.653 91.0997 189.535 86.8263 186.796 84.2248C185.511 82.9958 183.864 82.3844 182.205 82.3844C180.408 82.3844 178.611 83.1019 177.282 84.5243ZM65.9611 89.9456C64.5012 91.4928 64.5822 93.9133 66.1356 95.3856C67.6516 96.833 70.066 96.7706 71.5259 95.2422C72.9545 93.6888 72.8983 91.2619 71.3574 89.8021C70.6212 89.0972 69.6792 88.7478 68.7434 88.7478C67.7265 88.7478 66.7159 89.1533 65.9611 89.9456ZM184.538 103.933C182.254 106.359 182.373 110.184 184.794 112.461C187.195 114.769 191.001 114.625 193.259 112.205C195.549 109.791 195.424 105.966 193.01 103.67C191.849 102.579 190.365 102.036 188.892 102.036C187.301 102.036 185.711 102.666 184.538 103.933ZM59.7348 108.611C57.9818 110.539 58.0256 113.515 59.9408 115.318C61.8187 117.127 64.8257 117.027 66.6099 115.137C68.4004 113.234 68.2943 110.196 66.4165 108.406C65.4994 107.538 64.3328 107.108 63.1662 107.108C61.9122 107.108 60.6582 107.613 59.7348 108.611ZM186.041 124.875C184.263 126.784 184.369 129.791 186.253 131.582C188.175 133.397 191.132 133.298 192.929 131.382C194.707 129.48 194.644 126.479 192.717 124.67C191.812 123.809 190.652 123.384 189.485 123.384C188.231 123.384 186.971 123.884 186.041 124.875ZM59.3918 127.776C57.1334 130.191 57.2456 134.034 59.6537 136.317C62.0743 138.613 65.8549 138.494 68.1257 136.067C70.3966 133.653 70.2844 129.823 67.8701 127.514C66.7159 126.41 65.2498 125.874 63.7775 125.874C62.1804 125.874 60.5771 126.516 59.3918 127.776ZM181.138 144.764C179.69 146.305 179.759 148.751 181.294 150.223C182.853 151.676 185.268 151.595 186.715 150.036C188.15 148.495 188.094 146.055 186.553 144.589C185.81 143.891 184.868 143.548 183.926 143.548C182.916 143.548 181.893 143.959 181.138 144.764ZM65.5805 146.174C63.0289 148.881 63.1099 153.186 65.8362 155.775C68.5624 158.333 72.8422 158.196 75.3751 155.482C77.9204 152.762 77.8019 148.439 75.1006 145.887C73.7967 144.639 72.1435 144.034 70.5027 144.034C68.706 144.034 66.9093 144.764 65.5805 146.174ZM77.0282 161.327C74.1023 164.503 74.2397 169.394 77.3652 172.382C80.4783 175.339 85.3879 175.202 88.3138 172.052C91.2584 168.907 91.1086 163.979 87.9893 161.003C86.4858 159.581 84.5706 158.876 82.6678 158.869C80.6091 158.869 78.5504 159.699 77.0282 161.327ZM170.613 162.014C169.54 163.174 169.596 164.99 170.738 166.075C171.892 167.148 173.683 167.111 174.756 165.932C175.841 164.79 175.797 162.968 174.631 161.895C174.094 161.371 173.389 161.109 172.691 161.109C171.923 161.109 171.168 161.415 170.613 162.014ZM94.2218 173.374C91.6827 176.063 91.8011 180.368 94.5274 182.95C97.2349 185.539 101.509 185.396 104.041 182.676C106.587 179.925 106.493 175.645 103.754 173.068C102.463 171.839 100.797 171.228 99.1441 171.228C99.1316 171.228 99.1254 171.228 99.1191 171.228C97.3287 171.228 95.5444 171.952 94.2218 173.374ZM154.156 173.63C152.702 175.177 152.771 177.616 154.306 179.07C155.859 180.53 158.28 180.455 159.714 178.908C161.162 177.373 161.093 174.94 159.552 173.474C158.816 172.769 157.874 172.42 156.926 172.42C155.915 172.42 154.905 172.825 154.156 173.63ZM113.886 179.476C111.615 181.89 111.727 185.739 114.142 187.997C116.581 190.306 120.349 190.193 122.614 187.76C124.891 185.346 124.797 181.509 122.377 179.232C121.216 178.122 119.744 177.585 118.265 177.585C116.662 177.585 115.065 178.222 113.886 179.476ZM134.729 179.775C132.951 181.659 133.045 184.691 134.935 186.488C136.838 188.291 139.826 188.178 141.61 186.269C143.394 184.385 143.326 181.366 141.417 179.563C140.5 178.696 139.339 178.271 138.179 178.271C136.919 178.271 135.665 178.777 134.729 179.775Z" fill="white"/>
<path d="M135.06 30.9037C132.246 31.4651 130.424 34.1914 130.986 37.0424C131.547 39.8623 134.286 41.6964 137.093 41.1287C139.901 40.561 141.716 37.816 141.155 34.9962C140.656 32.4945 138.503 30.7976 136.089 30.7976C135.752 30.7976 135.409 30.835 135.06 30.9037ZM113.574 32.3198C111.372 32.6505 109.831 34.7092 110.155 36.9489C110.486 39.1823 112.545 40.7107 114.753 40.3926C116.968 40.0619 118.509 38.0032 118.178 35.7635C117.891 33.7298 116.157 32.2762 114.173 32.2762C113.973 32.2762 113.78 32.2949 113.574 32.3198ZM155.766 35.3081C152.409 36.169 150.369 39.6003 151.236 43.0003C152.091 46.3816 155.522 48.4403 158.879 47.5607C162.229 46.6998 164.262 43.2498 163.402 39.8748C162.672 36.9988 160.12 35.1085 157.325 35.1085C156.807 35.1085 156.29 35.1709 155.766 35.3081ZM91.5954 38.8891C89.6864 39.7188 88.7944 41.946 89.6241 43.8862C90.4414 45.8077 92.6747 46.6873 94.5837 45.8638C96.4927 45.0278 97.3849 42.7944 96.5614 40.8729C95.9438 39.4318 94.5524 38.5771 93.0989 38.5771C92.5935 38.5771 92.082 38.677 91.5954 38.8891ZM174.113 44.666C170.002 45.9574 167.675 50.3743 168.973 54.5417C170.258 58.6966 174.662 61.0173 178.773 59.7197C182.91 58.4158 185.205 53.9927 183.92 49.844C182.866 46.4627 179.784 44.3042 176.465 44.3042C175.679 44.3042 174.893 44.4227 174.113 44.666ZM71.7567 50.4866C70.0099 51.8903 69.7043 54.4356 71.0892 56.2136C72.4804 57.9854 75.0319 58.2786 76.7787 56.8874C78.538 55.4837 78.8437 52.9259 77.4525 51.1479C76.654 50.131 75.4749 49.6007 74.2833 49.6007C73.4037 49.6007 72.5116 49.8939 71.7567 50.4866ZM189.192 59.4015C184.719 61.0672 182.417 66.0456 184.089 70.5686C185.742 75.0853 190.714 77.3811 195.168 75.7154C199.642 74.056 201.937 69.0401 200.278 64.5359C198.98 61.0049 195.686 58.8588 192.193 58.8588C191.194 58.8588 190.178 59.0334 189.192 59.4015ZM55.9981 65.2471C53.6586 66.9128 53.0909 70.1568 54.7628 72.5275C56.4223 74.8732 59.654 75.4285 61.9809 73.7628C64.3204 72.0908 64.8756 68.8343 63.2162 66.4886C62.2055 65.0475 60.6147 64.2801 58.9989 64.2801C57.9571 64.2801 56.9089 64.592 55.9981 65.2471ZM199.679 77.8366C194.906 79.914 192.704 85.4414 194.763 90.2638C196.822 95.0675 202.343 97.2822 207.109 95.2172C211.869 93.146 214.078 87.5687 212.013 82.7775C210.484 79.1903 207.028 77.063 203.403 77.063C202.156 77.063 200.889 77.3063 199.679 77.8366ZM44.9621 83.4326C42.0425 85.3104 41.1503 89.1908 43.0219 92.1603C44.8747 95.1112 48.7551 95.9908 51.681 94.1255C54.6256 92.2664 55.4865 88.3423 53.6274 85.3852C52.4296 83.4825 50.4083 82.4469 48.3308 82.4469C47.1767 82.4469 46.0102 82.7713 44.9621 83.4326ZM205.556 99.9648C201.295 102.092 199.542 107.314 201.65 111.6C203.784 115.942 208.949 117.67 213.223 115.543C217.49 113.421 219.249 108.218 217.122 103.901C215.618 100.838 212.555 99.0664 209.374 99.0664C208.088 99.0664 206.785 99.3534 205.556 99.9648ZM39.1228 103.315C35.3484 105.442 34.0071 110.24 36.1345 114.045C38.2493 117.832 43.0157 119.198 46.79 117.059C50.5644 114.931 51.9055 110.115 49.7844 106.316C48.3433 103.739 45.6982 102.298 42.9594 102.298C42.947 102.298 42.9407 102.298 42.9282 102.298C41.6368 102.298 40.3268 102.629 39.1228 103.315ZM205.849 122.954C202.093 125.075 200.739 129.891 202.854 133.703C204.982 137.509 209.761 138.825 213.51 136.698C217.284 134.564 218.632 129.779 216.504 125.967C215.069 123.391 212.412 121.937 209.679 121.937C208.382 121.937 207.065 122.261 205.849 122.954ZM39.416 124.47C35.1675 126.585 33.3894 131.788 35.5106 136.117C37.6317 140.422 42.8221 142.181 47.0956 140.048C51.3628 137.92 53.1095 132.699 50.9884 128.394C49.4787 125.318 46.4405 123.547 43.2776 123.547C41.9799 123.547 40.6637 123.846 39.416 124.47ZM45.5359 144.801C40.7821 146.86 38.5613 152.413 40.6262 157.235C42.6725 162.032 48.2247 164.241 52.9785 162.176C57.7261 160.105 59.9222 154.54 57.8635 149.736C56.3288 146.155 52.8788 144.028 49.2542 144.028C48.0127 144.028 46.7525 144.271 45.5359 144.801ZM200.97 145.881C198.038 147.746 197.158 151.664 199.024 154.602C200.883 157.572 204.757 158.433 207.683 156.567C210.609 154.702 211.501 150.809 209.636 147.84C208.438 145.943 206.392 144.901 204.308 144.901C203.166 144.901 202.012 145.219 200.97 145.881ZM57.4703 164.297C53.0035 165.963 50.7077 170.979 52.3672 175.464C54.0329 180.012 59.0051 182.27 63.4532 180.598C67.9387 178.927 70.2283 173.967 68.5626 169.425C67.2712 165.925 63.9772 163.748 60.4649 163.748C59.473 163.748 58.456 163.923 57.4703 164.297ZM190.664 166.25C188.318 167.915 187.776 171.172 189.429 173.524C191.088 175.888 194.32 176.437 196.666 174.778C198.993 173.112 199.548 169.862 197.882 167.485C196.878 166.05 195.274 165.289 193.652 165.283C192.617 165.283 191.569 165.601 190.664 166.25ZM73.8654 180.293C69.7355 181.584 67.4397 186.001 68.7311 190.162C70.0225 194.348 74.3956 196.644 78.5255 195.334C82.6492 194.049 84.9638 189.638 83.6724 185.477C82.6306 182.096 79.53 179.931 76.1923 179.931C75.425 179.931 74.639 180.05 73.8654 180.293ZM175.854 183.125C174.113 184.529 173.814 187.093 175.193 188.852C176.584 190.636 179.135 190.917 180.888 189.52C182.641 188.122 182.941 185.571 181.562 183.793C180.764 182.776 179.578 182.245 178.38 182.245C177.501 182.245 176.609 182.532 175.854 183.125ZM93.7789 192.452C90.4226 193.319 88.4012 196.75 89.2559 200.132C90.1106 203.544 93.5295 205.565 96.8858 204.704C100.248 203.837 102.282 200.412 101.421 197.012C100.704 194.155 98.1397 192.252 95.3448 192.252C94.827 192.252 94.303 192.321 93.7789 192.452ZM158.067 194.155C156.158 194.978 155.273 197.212 156.096 199.133C156.932 201.08 159.147 201.953 161.056 201.13C162.971 200.3 163.863 198.06 163.04 196.133C162.422 194.698 161.025 193.843 159.565 193.843C159.066 193.843 158.554 193.943 158.067 194.155ZM115.552 198.878C112.75 199.445 110.929 202.209 111.49 205.023C112.052 207.867 114.791 209.695 117.592 209.128C120.393 208.56 122.227 205.809 121.659 202.964C121.16 200.493 118.995 198.778 116.569 198.778C116.232 198.778 115.895 198.809 115.552 198.878ZM137.886 199.614C135.69 199.951 134.149 202.022 134.473 204.249C134.798 206.489 136.869 208.017 139.065 207.693C141.286 207.362 142.827 205.303 142.496 203.064C142.209 201.03 140.468 199.576 138.466 199.576C138.279 199.576 138.085 199.583 137.886 199.614Z" fill="white"/>
<path d="M121.491 11.72C121.491 14.4151 123.662 16.5861 126.319 16.5861C128.989 16.5861 131.161 14.4151 131.161 11.72C131.161 9.01868 128.989 6.86637 126.319 6.86637C123.662 6.86637 121.491 9.01868 121.491 11.72ZM97.1602 10.3725C94.3902 11.1149 92.7433 13.9659 93.4794 16.7608C94.228 19.5619 97.0854 21.2026 99.8366 20.4603C102.613 19.7116 104.26 16.8543 103.524 14.0532C102.9 11.7138 100.81 10.1853 98.5266 10.1853C98.0774 10.1853 97.6156 10.2477 97.1602 10.3725ZM149.134 14.0595C148.392 16.8543 150.038 19.7116 152.802 20.4603C155.572 21.2089 158.429 19.5619 159.172 16.767C159.908 13.9722 158.255 11.1211 155.479 10.3725C155.029 10.2477 154.574 10.1916 154.131 10.1916C151.848 10.1916 149.752 11.7138 149.134 14.0595ZM71.189 19.6742C67.5955 20.4415 65.2998 23.9664 66.0672 27.6035C66.8283 31.2094 70.3531 33.5114 73.9402 32.744C77.5337 31.9767 79.8233 28.427 79.0559 24.8086C78.3946 21.6581 75.6496 19.5182 72.5864 19.5182C72.1248 19.5182 71.6569 19.5681 71.189 19.6742ZM173.589 24.8086C172.822 28.427 175.111 31.9767 178.705 32.744C182.286 33.5114 185.817 31.2094 186.572 27.6035C187.351 23.9664 185.049 20.4415 181.462 19.6804C180.994 19.5744 180.52 19.5245 180.052 19.5245C176.989 19.5245 174.25 21.6581 173.589 24.8086ZM49.0545 35.4329C44.6687 36.1316 41.6743 40.2491 42.373 44.6972C43.0655 49.1141 47.183 52.1398 51.5687 51.4411C55.9607 50.7424 58.9552 46.5812 58.2627 42.1581C57.6326 38.1529 54.2201 35.3331 50.3335 35.3331C49.9092 35.3331 49.4849 35.3642 49.0545 35.4329ZM194.389 42.1643C193.702 46.5875 196.691 50.7486 201.076 51.4473C205.456 52.146 209.592 49.1203 210.278 44.7034C210.983 40.2553 207.97 36.1378 203.603 35.4391C203.179 35.3705 202.748 35.3393 202.33 35.3393C198.444 35.3393 195.025 38.1529 194.389 42.1643ZM209.43 64.8104C208.856 70.3502 212.873 75.3224 218.357 75.9088C223.872 76.4952 228.801 72.4526 229.381 66.9128C229.967 61.3417 225.968 56.4007 220.466 55.8143C220.104 55.7769 219.755 55.7582 219.399 55.7582C214.346 55.7582 209.979 59.6011 209.43 64.8104ZM32.1792 55.8143C26.658 56.4007 22.6778 61.3417 23.258 66.9128C23.832 72.4526 28.7542 76.4952 34.2753 75.9026C39.7778 75.3224 43.7829 70.3502 43.2027 64.8104C42.66 59.6011 38.3054 55.7582 33.2522 55.7582C32.8966 55.7582 32.541 55.7769 32.1792 55.8143ZM219.143 91.3805C218.825 97.5255 223.51 102.772 229.587 103.097C235.694 103.408 240.91 98.6921 241.228 92.5471C241.546 86.3709 236.842 81.1679 230.759 80.8498C230.56 80.8373 230.36 80.8311 230.161 80.8311C224.334 80.8311 219.455 85.4102 219.143 91.3805ZM21.8667 80.8498C15.7966 81.1679 11.0865 86.3709 11.4109 92.5471C11.729 98.6921 16.9509 103.408 23.0459 103.097C29.141 102.772 33.8262 97.5255 33.5081 91.3805C33.1961 85.4102 28.3237 80.8311 22.4656 80.8311C22.266 80.8311 22.0663 80.8373 21.8667 80.8498ZM221.788 119.991C221.788 126.691 227.166 132.125 233.804 132.125C240.461 132.125 245.851 126.691 245.851 120.003C245.851 113.272 240.46 107.888 233.823 107.888C227.166 107.888 221.788 113.272 221.788 119.991ZM6.78809 120.003C6.78809 126.691 12.2032 132.125 18.8348 132.125C25.4539 132.125 30.8442 126.691 30.8442 119.991C30.8442 113.272 25.4539 107.888 18.8348 107.888C12.2032 107.888 6.78809 113.272 6.78809 120.003ZM229.587 136.91C223.51 137.234 218.825 142.474 219.143 148.613C219.468 154.796 224.671 159.462 230.759 159.15C236.842 158.826 241.54 153.629 241.222 147.447C240.916 141.514 236.019 136.897 230.173 136.897C229.98 136.897 229.786 136.903 229.587 136.91ZM11.4171 147.447C11.099 153.629 15.7966 158.826 21.873 159.15C27.9868 159.468 33.1835 154.796 33.5142 148.613C33.8261 142.474 29.1409 137.234 23.052 136.91C22.8524 136.903 22.659 136.897 22.4656 136.897C16.6263 136.897 11.7228 141.514 11.4171 147.447ZM218.357 164.097C212.867 164.678 208.856 169.65 209.43 175.202C210.016 180.773 214.97 184.766 220.46 184.186C225.968 183.599 229.967 178.665 229.381 173.087C228.838 167.903 224.484 164.041 219.418 164.041C219.075 164.041 218.719 164.06 218.357 164.097ZM23.258 173.087C22.6778 178.665 26.6643 183.599 32.1792 184.186C37.6816 184.766 42.6225 180.773 43.2027 175.202C43.7829 169.65 39.7778 164.678 34.2753 164.097C33.9135 164.06 33.5579 164.041 33.2023 164.041C28.1366 164.041 23.7946 167.903 23.258 173.087ZM201.083 188.565C196.691 189.27 193.69 193.419 194.389 197.836C195.087 202.278 199.211 205.266 203.597 204.567C207.97 203.868 210.977 199.745 210.278 195.303C209.648 191.31 206.217 188.465 202.336 188.465C201.925 188.465 201.501 188.503 201.083 188.565ZM42.3793 195.303C41.6744 199.745 44.675 203.875 49.0545 204.567C53.4402 205.266 57.564 202.278 58.269 197.836C58.9552 193.425 55.9607 189.27 51.5687 188.571C51.1382 188.509 50.7202 188.472 50.3022 188.472C46.4218 188.472 42.9969 191.316 42.3793 195.303ZM178.705 207.256C175.111 208.023 172.815 211.586 173.583 215.185C174.35 218.822 177.869 221.118 181.462 220.345C185.049 219.583 187.345 216.04 186.572 212.403C185.91 209.271 183.147 207.106 180.077 207.106C179.622 207.106 179.16 207.15 178.705 207.256ZM66.0733 212.409C65.2997 216.04 67.5955 219.583 71.1827 220.351C74.7699 221.118 78.2948 218.822 79.0559 215.185C79.8233 211.586 77.5337 208.023 73.9402 207.256C73.4848 207.15 73.0232 207.106 72.5678 207.106C69.4984 207.106 66.7346 209.271 66.0733 212.409ZM152.796 219.546C150.038 220.295 148.391 223.152 149.121 225.953C149.87 228.742 152.721 230.382 155.479 229.634C158.261 228.891 159.902 226.04 159.166 223.239C158.548 220.906 156.439 219.365 154.143 219.365C153.7 219.365 153.245 219.421 152.796 219.546ZM93.4794 223.252C92.7433 226.04 94.3965 228.891 97.1602 229.634C99.9363 230.382 102.781 228.742 103.524 225.947C104.26 223.152 102.613 220.295 99.8366 219.546C99.3937 219.427 98.9446 219.365 98.5016 219.365C96.2183 219.365 94.1033 220.906 93.4794 223.252ZM121.491 228.286C121.491 230.869 123.487 232.965 125.995 233.134H126.65C129.164 232.965 131.161 230.869 131.161 228.28C131.161 225.597 128.989 223.42 126.319 223.42C123.662 223.42 121.491 225.597 121.491 228.286Z" fill="white"/>
</svg>
